<?xml version="1.0" encoding="UTF-8"?>
<!DOCTYPE svg PUBLIC "-//W3C//DTD SVG 1.1//EN" "http://www.w3.org/Graphics/SVG/1.1/DTD/svg11.dtd">
<!-- Creator: CorelDRAW 2017 -->
<svg xmlns="http://www.w3.org/2000/svg" xml:space="preserve" width="354px" height="354px" version="1.1" shape-rendering="geometricPrecision" text-rendering="geometricPrecision" image-rendering="optimizeQuality" fill-rule="evenodd" clip-rule="evenodd"
viewBox="0 0 89.26 89.26"
 xmlns:xlink="http://www.w3.org/1999/xlink">
 <g id="Layer_x0020_1">
  <metadata id="CorelCorpID_0Corel-Layer"/>
  <rect fill="none" width="89.26" height="89.26" rx="2.83" ry="2.54"/>
  <path fill="#EE3167" d="M12.65 45.17c-0.27,-0.47 -0.21,-0.82 0.03,-1.29 9.86,-18.32 24.74,-29.56 43.49,-37.59 0.64,-0.28 1.58,0.47 1.35,1.14 -2.8,8.14 -4.77,16.05 -5.91,24.56 -0.05,0.51 -0.28,0.91 -0.67,1.22 -4.49,3 -8.68,6.5 -12.59,10.24 -0.53,0.68 -0.57,1.36 0,2.04 3.5,3.02 7.97,6.5 12.17,9.31 0.44,0.28 0.82,1.03 0.82,1.6 1.12,9.6 3.41,17.58 6.18,26.17 0.3,0.96 -0.68,1.39 -1.42,1.02 -19.52,-9.61 -34.32,-22.17 -43.45,-38.42z"/>
  <path fill="#0098DA" d="M72 62.16c-10.84,-3.39 -20.53,-9.15 -29.11,-16.76 -0.58,-0.51 -0.51,-1.22 0.01,-1.71 8.53,-8.15 18.2,-14.55 28.9,-19.08 0.94,-0.4 1.72,0.38 1.44,1.46 -3.03,11.62 -3.7,23.12 0.04,34.64 0.31,0.95 -0.47,1.71 -1.28,1.45z"/>
 </g>
</svg>
